<svg width="48" height="48" viewBox="0 0 48 48" fill="none" xmlns="http://www.w3.org/2000/svg">
<path d="M48 24C48 37.2548 37.2548 48 24 48C10.7452 48 0 37.2548 0 24C0 10.7452 10.7452 0 24 0C37.2548 0 48 10.7452 48 24Z" fill="#120101"/>
<path d="M32.179 20.5H29.8011C29.6605 19.8161 29.4144 19.2152 29.0629 18.6974C28.7177 18.1797 28.2958 17.745 27.7972 17.3935C27.305 17.0355 26.7585 16.767 26.1577 16.5881C25.5568 16.4091 24.9304 16.3196 24.2784 16.3196C23.0895 16.3196 22.0124 16.62 21.0472 17.2209C20.0884 17.8217 19.3246 18.707 18.7557 19.8768C18.1932 21.0465 17.9119 22.4815 17.9119 24.1818C17.9119 25.8821 18.1932 27.3171 18.7557 28.4869C19.3246 29.6566 20.0884 30.5419 21.0472 31.1428C22.0124 31.7436 23.0895 32.044 24.2784 32.044C24.9304 32.044 25.5568 31.9545 26.1577 31.7756C26.7585 31.5966 27.305 31.3313 27.7972 30.9798C28.2958 30.6218 28.7177 30.1839 29.0629 29.6662C29.4144 29.142 29.6605 28.5412 29.8011 27.8636H32.179C32 28.8672 31.674 29.7653 31.201 30.5579C30.728 31.3505 30.1399 32.0249 29.4368 32.581C28.7337 33.1307 27.9442 33.5494 27.0685 33.837C26.1992 34.1246 25.2692 34.2685 24.2784 34.2685C22.6037 34.2685 21.1143 33.8594 19.8104 33.0412C18.5064 32.223 17.4805 31.0597 16.7326 29.5511C15.9847 28.0426 15.6108 26.2528 15.6108 24.1818C15.6108 22.1108 15.9847 20.321 16.7326 18.8125C17.4805 17.304 18.5064 16.1406 19.8104 15.3224C21.1143 14.5043 22.6037 14.0952 24.2784 14.0952C25.2692 14.0952 26.1992 14.239 27.0685 14.5266C27.9442 14.8143 28.7337 15.2362 29.4368 15.7923C30.1399 16.342 30.728 17.0131 31.201 17.8058C31.674 18.592 32 19.4901 32.179 20.5Z" fill="white"/>
</svg>
